<svg width="68" height="31" viewBox="0 0 68 31" fill="none" xmlns="http://www.w3.org/2000/svg">
    <path d="M33.8161 0.336487C14.8881 0.336487 0.0600586 7.07049 0.0600586 15.6685C0.0600586 24.2665 14.8871 30.9975 33.8161 30.9975C52.7451 30.9975 67.5721 24.2625 67.5721 15.6655C67.5721 7.0685 52.7451 0.333496 33.8161 0.333496M63.64 14.2625H56.9971C56.8554 14.2632 56.7179 14.2145 56.6084 14.1246C56.4988 14.0348 56.4241 13.9096 56.3971 13.7705C55.9619 11.5259 54.9079 9.44771 53.3541 7.77049C53.2831 7.6922 53.2337 7.59674 53.2108 7.49355C53.188 7.39035 53.1924 7.28299 53.2237 7.18204C53.255 7.08108 53.3121 6.99003 53.3893 6.91786C53.4665 6.84569 53.5612 6.7949 53.6641 6.77049C53.9507 6.70383 54.2364 6.63416 54.5211 6.56149C54.6432 6.53095 54.7717 6.53898 54.8891 6.58449C59.6891 8.44949 62.9361 10.8845 64.1891 13.3845C64.235 13.4773 64.2566 13.5803 64.2516 13.6837C64.2466 13.7872 64.2153 13.8876 64.1606 13.9756C64.1059 14.0635 64.0297 14.136 63.9391 14.1862C63.8485 14.2365 63.7466 14.2627 63.6431 14.2625M36.4431 6.16249C34.7011 6.21249 32.9431 6.21249 31.2041 6.16249C31.0956 6.15904 30.9901 6.12659 30.8984 6.06851C30.8068 6.01044 30.7324 5.92886 30.683 5.83228C30.6336 5.73569 30.6109 5.62762 30.6175 5.51932C30.624 5.41102 30.6594 5.30645 30.7201 5.21649C30.9797 4.60827 31.4123 4.08974 31.9642 3.7253C32.516 3.36085 33.1627 3.16656 33.8241 3.16656C34.4854 3.16656 35.1321 3.36085 35.684 3.7253C36.2358 4.08974 36.6684 4.60827 36.9281 5.21649C36.9887 5.30645 37.0241 5.41102 37.0306 5.51932C37.0372 5.62762 37.0145 5.73569 36.9651 5.83228C36.9157 5.92886 36.8413 6.01044 36.7497 6.06851C36.658 6.12659 36.5525 6.15904 36.4441 6.16249M39.6181 15.6625C39.6153 17.5864 39.3803 19.5029 38.9181 21.3705C38.8835 21.5053 38.8032 21.6239 38.6908 21.706C38.5784 21.7881 38.441 21.8286 38.3021 21.8205C35.3351 21.6785 32.3181 21.6785 29.3541 21.8205C29.2151 21.8286 29.0777 21.7881 28.9653 21.706C28.853 21.6239 28.7726 21.5053 28.7381 21.3705C27.7466 17.413 27.8034 13.2654 28.9031 9.33649C28.9407 9.20572 29.0217 9.09165 29.1327 9.01297C29.2437 8.93429 29.3782 8.89568 29.5141 8.90349C30.9441 8.97049 32.3891 9.00349 33.8291 9.00349C35.2691 9.00349 36.7121 8.96849 38.1421 8.90349C38.2779 8.89568 38.4124 8.93429 38.5234 9.01297C38.6344 9.09165 38.7154 9.20572 38.7531 9.33649C39.3263 11.3967 39.6186 13.525 39.6221 15.6635M27.3031 5.57748C27.25 5.68817 27.1649 5.78035 27.0588 5.84206C26.9527 5.90376 26.8305 5.93214 26.7081 5.92349C26.3081 5.89249 25.9181 5.85849 25.5321 5.82349C25.2861 5.80082 25.0407 5.77649 24.7961 5.75049C24.6579 5.73576 24.5289 5.67423 24.4305 5.57608C24.3321 5.47793 24.2703 5.34909 24.2552 5.21094C24.2401 5.07279 24.2728 4.93365 24.3477 4.8166C24.4226 4.69956 24.5353 4.61165 24.6671 4.56749C25.4357 4.31816 26.2321 4.09982 27.0561 3.91249C27.1709 3.88533 27.2911 3.8926 27.4018 3.93341C27.5125 3.97422 27.6087 4.04677 27.6784 4.14195C27.748 4.23714 27.7881 4.35076 27.7936 4.4686C27.799 4.58644 27.7696 4.70327 27.7091 4.80449C27.5691 5.05382 27.4337 5.31182 27.3031 5.57849M27.0531 27.4245C25.7884 27.1407 24.5463 26.764 23.3371 26.2975C23.2097 26.2496 23.1021 26.1604 23.0316 26.0441C22.961 25.9279 22.9316 25.7912 22.948 25.6562C22.9643 25.5212 23.0256 25.3955 23.1219 25.2995C23.2182 25.2034 23.344 25.1425 23.4791 25.1265C24.1591 25.0438 24.8434 24.9698 25.5321 24.9045C25.8347 24.8765 26.1347 24.8502 26.4321 24.8255C26.5578 24.8169 26.683 24.8477 26.7905 24.9134C26.898 24.9792 26.9824 25.0767 27.0321 25.1925C27.2401 25.6638 27.4631 26.1112 27.7011 26.5345C27.7592 26.6362 27.7866 26.7526 27.7798 26.8696C27.7731 26.9866 27.7325 27.0991 27.6631 27.1935C27.5936 27.2879 27.4982 27.36 27.3885 27.4012C27.2788 27.4424 27.1595 27.4508 27.0451 27.4255M30.8071 24.5755C32.8011 24.5095 34.8121 24.5095 36.8071 24.5755C36.9122 24.58 37.0143 24.6116 37.1036 24.6673C37.1929 24.723 37.2662 24.8008 37.3166 24.8932C37.3669 24.9855 37.3924 25.0894 37.3908 25.1946C37.3891 25.2998 37.3603 25.4027 37.3071 25.4935C36.3611 27.1245 35.1651 28.1695 33.8071 28.1695C32.4491 28.1695 31.2521 27.1245 30.3071 25.4935C30.2538 25.4027 30.225 25.2998 30.2233 25.1946C30.2217 25.0894 30.2472 24.9855 30.2976 24.8932C30.3479 24.8008 30.4213 24.723 30.5105 24.6673C30.5998 24.6116 30.7019 24.58 30.8071 24.5755ZM40.584 25.1925C40.6337 25.0767 40.7181 24.9792 40.8256 24.9134C40.9331 24.8477 41.0583 24.8169 41.1841 24.8255C41.4827 24.8502 41.7827 24.8765 42.084 24.9045C42.7727 24.9712 43.4567 25.0452 44.136 25.1265C44.2712 25.1423 44.3971 25.2031 44.4935 25.2991C44.59 25.3951 44.6514 25.5207 44.6679 25.6558C44.6844 25.7908 44.655 25.9275 44.5845 26.0439C44.514 26.1603 44.4064 26.2496 44.2791 26.2975C43.0698 26.764 41.8277 27.1407 40.563 27.4245C40.4486 27.4498 40.3293 27.4414 40.2196 27.4002C40.1099 27.359 40.0145 27.2869 39.9451 27.1925C39.8756 27.0981 39.835 26.9856 39.8283 26.8686C39.8215 26.7516 39.8489 26.6352 39.907 26.5335C40.145 26.1108 40.3684 25.6635 40.5771 25.1915M40.5611 3.9135C41.3837 4.0995 42.1797 4.31783 42.9491 4.5685C43.0808 4.61266 43.1935 4.70055 43.2684 4.8176C43.3434 4.93464 43.376 5.0738 43.3609 5.21194C43.3459 5.35009 43.284 5.47893 43.1856 5.57707C43.0872 5.67522 42.9583 5.73677 42.8201 5.7515C42.5747 5.7775 42.3294 5.80183 42.084 5.82449C41.698 5.86049 41.3051 5.89448 40.9091 5.92448C40.7866 5.93313 40.6644 5.90477 40.5583 5.84306C40.4522 5.78136 40.3671 5.68918 40.3141 5.57849C40.1807 5.31182 40.0454 5.05382 39.9081 4.80449C39.8475 4.70327 39.8181 4.58644 39.8235 4.4686C39.829 4.35076 39.8691 4.23714 39.9388 4.14195C40.0084 4.04677 40.1046 3.97422 40.2153 3.93341C40.326 3.8926 40.4463 3.88533 40.5611 3.91249M18.2371 7.8595C18.3036 7.80772 18.3803 7.77054 18.4621 7.75038C18.5439 7.73022 18.6291 7.72754 18.7121 7.74249C20.8481 8.11249 23.0361 8.40849 25.2551 8.61549L25.4031 8.62949C25.49 8.6361 25.5744 8.66159 25.6505 8.70416C25.7266 8.74673 25.7925 8.80537 25.8436 8.87599C25.8947 8.94662 25.9298 9.02752 25.9465 9.1131C25.9631 9.19867 25.9609 9.28685 25.9401 9.37149C25.4411 11.4341 25.1937 13.5495 25.2031 15.6715C25.1964 17.5929 25.3976 19.5094 25.8031 21.3875C25.8213 21.4713 25.8214 21.5581 25.8033 21.642C25.7851 21.7259 25.7492 21.8049 25.6979 21.8737C25.6466 21.9425 25.5812 21.9995 25.506 22.0409C25.4308 22.0823 25.3476 22.107 25.2621 22.1135H25.2551C22.8201 22.3415 20.4271 22.6705 18.1021 23.0905C18.0138 23.1065 17.923 23.1025 17.8365 23.0788C17.75 23.0551 17.6698 23.0123 17.6021 22.9535C16.4869 22.0836 15.5743 20.9815 14.9274 19.7238C14.2806 18.466 13.915 17.0826 13.8561 15.6695C13.8561 12.7175 15.4991 10.0015 18.2411 7.86049M17.1521 26.1325C17.1941 26.1625 17.2391 26.1905 17.2811 26.2205L17.0381 26.1565L17.1531 26.1325M50.459 26.1325L50.5741 26.1565L50.33 26.2205C50.372 26.1905 50.417 26.1625 50.459 26.1325ZM50.0081 22.9535C49.9403 23.0123 49.8602 23.0551 49.7736 23.0788C49.6871 23.1025 49.5963 23.1065 49.5081 23.0905C47.1811 22.6695 44.7881 22.3415 42.3551 22.1135H42.347C42.2616 22.1069 42.1785 22.082 42.1034 22.0406C42.0284 21.9992 41.963 21.9422 41.9119 21.8734C41.8607 21.8046 41.8249 21.7256 41.8068 21.6418C41.7887 21.558 41.7888 21.4713 41.8071 21.3875C42.2126 19.5094 42.4137 17.5929 42.407 15.6715C42.4165 13.5494 42.1691 11.4341 41.67 9.37149C41.6492 9.28685 41.647 9.19867 41.6636 9.1131C41.6803 9.02752 41.7154 8.94662 41.7665 8.87599C41.8177 8.80537 41.8835 8.74673 41.9596 8.70416C42.0357 8.66159 42.1201 8.6361 42.2071 8.62949L42.3541 8.61549C44.5701 8.40849 46.7541 8.11549 48.8981 7.74249C48.981 7.72754 49.0662 7.73022 49.148 7.75038C49.2299 7.77054 49.3065 7.80772 49.373 7.8595C52.115 10.0005 53.7581 12.7165 53.7581 15.6685C53.6991 17.0816 53.3335 18.465 52.6867 19.7227C52.0398 20.9805 51.1272 22.0825 50.0121 22.9525M13.1061 6.56349C13.3907 6.63483 13.6761 6.70449 13.9621 6.77249C14.0649 6.7969 14.1596 6.84769 14.2368 6.91986C14.314 6.99203 14.3711 7.08308 14.4024 7.18404C14.4337 7.28499 14.4381 7.39235 14.4153 7.49554C14.3924 7.59874 14.3431 7.6942 14.2721 7.77249C12.7183 9.44977 11.6643 11.528 11.2291 13.7725C11.202 13.9116 11.1273 14.0368 11.0177 14.1266C10.9082 14.2165 10.7707 14.2652 10.6291 14.2645H3.98706C3.88358 14.2645 3.7818 14.2382 3.69136 14.1879C3.60092 14.1376 3.52482 14.0651 3.47025 13.9771C3.41567 13.8892 3.38445 13.7888 3.37952 13.6855C3.37458 13.5821 3.39611 13.4792 3.44206 13.3865C4.69206 10.8795 7.94207 8.44849 12.7421 6.58649C12.8594 6.54104 12.988 6.53301 13.1101 6.56349M3.98906 17.0705H10.6391C10.7833 17.0716 10.9226 17.1235 11.0323 17.2172C11.1421 17.3108 11.2153 17.4402 11.2391 17.5825C11.6304 19.6108 12.536 21.5046 13.8691 23.0825C13.936 23.1606 13.9816 23.2546 14.0017 23.3555C14.0218 23.4563 14.0157 23.5607 13.9839 23.6584C13.952 23.7562 13.8956 23.8442 13.82 23.9139C13.7444 23.9836 13.6521 24.0327 13.5521 24.0565C13.1041 24.1658 12.6541 24.2808 12.2021 24.4015C12.0713 24.436 11.9329 24.4266 11.8081 24.3745C7.51906 22.5635 4.60805 20.2875 3.44305 17.9455C3.39789 17.8528 3.37706 17.7502 3.38252 17.6473C3.38799 17.5444 3.41958 17.4445 3.4743 17.3572C3.52903 17.2699 3.60509 17.1979 3.69533 17.1481C3.78556 17.0983 3.88698 17.0723 3.99005 17.0725M55.4301 24.4025C54.9827 24.2838 54.5324 24.1688 54.0791 24.0575C53.979 24.0337 53.8867 23.9846 53.8111 23.9149C53.7355 23.8452 53.6791 23.7572 53.6472 23.6594C53.6154 23.5616 53.6093 23.4573 53.6294 23.3565C53.6495 23.2556 53.6952 23.1616 53.7621 23.0835C55.0951 21.5056 56.0007 19.6118 56.3921 17.5835C56.4158 17.4412 56.489 17.3118 56.5988 17.2182C56.7085 17.1245 56.8478 17.0726 56.9921 17.0715H63.6421C63.7451 17.0713 63.8466 17.0973 63.9368 17.1471C64.027 17.1969 64.1031 17.2689 64.1578 17.3562C64.2125 17.4435 64.2441 17.5434 64.2496 17.6463C64.2551 17.7492 64.2342 17.8518 64.1891 17.9445C63.0241 20.2865 60.114 22.5625 55.825 24.3735C55.7006 24.4256 55.5625 24.4351 55.4321 24.4005" fill="#0C0C0C"/>
</svg>
